<svg width="24" height="19" viewBox="0 0 24 19" fill="none" xmlns="http://www.w3.org/2000/svg">
<path d="M16.7664 9.82639C15.0527 9.77492 13.783 10.0519 13.7976 10.7625C13.8081 11.2733 14.0961 11.5086 15.2705 11.4243C16.6709 11.3237 17.3272 11.72 17.3648 12.2175C17.4334 13.1257 16.1639 13.4602 14.0267 13.2759" stroke="url(#paint0_linear_83_101)" stroke-width="0.98586"/>
<path d="M14.6414 8.02775C11.234 7.7198 9.31774 7.85668 7.94897 10.5942L9.91999 17C11.2888 16.4525 13.1229 14.7536 16.0794 15.2754C20.2678 16.0145 21.7461 13.7971 22.7316 11.5523C22.7316 11.5523 19.9316 5.88193 19.7203 5.52979C19.7203 5.52979 17.17 8.25628 14.6414 8.02775Z" stroke="url(#paint1_linear_83_101)" stroke-width="1.54921"/>
<path d="M5.05607 0.364671C5.07389 0.28886 5.19661 0.28886 5.21442 0.364671C5.38582 1.09402 5.83781 2.7271 6.59291 3.4822C7.3474 4.23668 8.93127 4.64139 9.63915 4.79076C9.7149 4.80675 9.7187 4.92817 9.64403 4.94861C8.93858 5.1417 7.34914 5.6413 6.59291 6.39753C5.83711 7.15333 5.38497 8.6941 5.21394 9.37785C5.19528 9.45244 5.07521 9.45244 5.05656 9.37785C4.88552 8.6941 4.43339 7.15333 3.67758 6.39753C2.92136 5.6413 1.33192 5.1417 0.626461 4.94861C0.551796 4.92817 0.555599 4.80675 0.631342 4.79076C1.33922 4.64139 2.9231 4.23668 3.67758 3.4822C4.43268 2.7271 4.88468 1.09402 5.05607 0.364671Z" fill="url(#paint2_linear_83_101)"/>
<path d="M2.64891 10.194C2.67106 10.1102 2.81596 10.1102 2.8381 10.194C2.95966 10.6541 3.19979 11.3877 3.56656 11.7545C3.93286 12.1208 4.64538 12.3411 5.09201 12.4493C5.17576 12.4695 5.18024 12.6128 5.09775 12.6377C4.65151 12.7724 3.93443 13.0327 3.56656 13.4006C3.19898 13.7682 2.95861 14.4646 2.83731 14.8974C2.81421 14.9798 2.67281 14.9798 2.64971 14.8974C2.5284 14.4646 2.28803 13.7682 1.92045 13.4006C1.55258 13.0327 0.835509 12.7724 0.389267 12.6377C0.306776 12.6128 0.311256 12.4695 0.395005 12.4493C0.841633 12.3411 1.55416 12.1208 1.92045 11.7545C2.28723 11.3877 2.52735 10.6541 2.64891 10.194Z" fill="url(#paint3_linear_83_101)"/>
<path d="M14.9568 9.06133L16.0639 14.1021" stroke="url(#paint4_linear_83_101)" stroke-width="0.774604"/>
<defs>
<linearGradient id="paint0_linear_83_101" x1="15.457" y1="9.85991" x2="17.5" y2="13.5" gradientUnits="userSpaceOnUse">
<stop stop-color="#6050A5"/>
<stop offset="1" stop-color="#4F428C"/>
</linearGradient>
<linearGradient id="paint1_linear_83_101" x1="14.5" y1="5" x2="20" y2="16" gradientUnits="userSpaceOnUse">
<stop stop-color="#6E5BB9"/>
<stop offset="1" stop-color="#44397C"/>
</linearGradient>
<linearGradient id="paint2_linear_83_101" x1="1.5" y1="0.5" x2="7" y2="9.5" gradientUnits="userSpaceOnUse">
<stop stop-color="#9974D9"/>
<stop offset="1" stop-color="#6A58B4"/>
</linearGradient>
<linearGradient id="paint3_linear_83_101" x1="2.5" y1="8.5" x2="5.5" y2="14.5" gradientUnits="userSpaceOnUse">
<stop stop-color="#6F5CBC"/>
<stop offset="1" stop-color="#5C4C9F"/>
</linearGradient>
<linearGradient id="paint4_linear_83_101" x1="15.0167" y1="9.04965" x2="17" y2="14" gradientUnits="userSpaceOnUse">
<stop stop-color="#6050A6"/>
<stop offset="1" stop-color="#4F428C"/>
</linearGradient>
</defs>
</svg>
