<svg xmlns="http://www.w3.org/2000/svg" width="49" height="37" fill="none" viewBox="0 0 49 37">
  <path stroke="#fff" stroke-width="2.001" d="M34.894 19.942c-3.478-.105-6.054.457-6.025 1.9.022 1.036.606 1.514 2.99 1.343 2.841-.204 4.173.6 4.25 1.61.139 1.843-2.438 2.521-6.775 2.147"/>
  <path stroke="#fff" stroke-width="3.144" d="M30.582 16.292C23.667 15.667 19.778 15.944 17 21.5l4 13c2.778-1.111 6.5-4.559 12.5-3.5C42 32.5 45 28 47 23.445c0 0-5.682-11.508-6.111-12.223 0 0-5.176 5.533-10.307 5.07Z"/>
  <path fill="#fff" d="M11.13.74c.035-.154.284-.154.32 0 .348 1.48 1.266 4.794 2.798 6.327 1.531 1.531 4.745 2.352 6.182 2.655.154.033.161.28.01.32-1.432.393-4.657 1.406-6.192 2.941-1.534 1.534-2.451 4.66-2.799 6.049-.037.15-.281.15-.319 0-.347-1.388-1.265-4.515-2.798-6.049-1.535-1.535-4.76-2.548-6.192-2.94-.152-.042-.144-.288.01-.32 1.436-.304 4.65-1.125 6.182-2.656C9.864 5.534 10.782 2.22 11.129.74ZM6.244 20.688c.045-.17.339-.17.384 0 .247.934.734 2.422 1.478 3.167.744.743 2.19 1.19 3.096 1.41.17.04.179.331.012.382-.906.274-2.361.802-3.108 1.548-.746.746-1.234 2.16-1.48 3.038-.047.167-.334.167-.38 0-.247-.878-.734-2.292-1.48-3.038-.747-.746-2.202-1.274-3.108-1.548-.167-.05-.158-.341.012-.382.906-.22 2.352-.667 3.096-1.41.744-.745 1.231-2.233 1.478-3.167Z"/>
  <path stroke="#fff" stroke-width="1.572" d="m31.222 18.39 2.247 10.229"/>
</svg>
